<?xml version="1.0" encoding="utf-8"?>
<!-- Generator: Adobe Illustrator 22.1.0, SVG Export Plug-In . SVG Version: 6.00 Build 0)  -->
<svg version="1.1" id="Layer_6" xmlns="http://www.w3.org/2000/svg" xmlns:xlink="http://www.w3.org/1999/xlink" x="0px" y="0px"
	 viewBox="0 0 328.9 310.6" style="enable-background:new 0 0 328.9 310.6;" xml:space="preserve" fill="white">
<g>
	<g>
		<path d="M252.1,46.2c0.9-4.9-2.4-9.6-7.3-10.4c-4.9-0.9-9.6,2.4-10.4,7.3c-0.9,4.9,2.4,9.6,7.3,10.4
			C246.6,54.4,251.2,51.1,252.1,46.2z"/>
	</g>
	<g>
		<path d="M243.1,244.5c0.9-4.9-2.4-9.6-7.3-10.4c-4.9-0.9-9.6,2.4-10.4,7.3c-0.9,4.9,2.4,9.6,7.3,10.4
			C237.6,252.6,242.2,249.4,243.1,244.5z"/>
	</g>
	<g>
		<path d="M153.2,226.5c0.9-4.9-2.4-9.6-7.3-10.4c-4.9-0.9-9.6,2.4-10.4,7.3c-0.9,4.9,2.4,9.6,7.3,10.4
			C147.7,234.6,152.4,231.4,153.2,226.5z"/>
	</g>
	<g>
		<circle cx="157.4" cy="157" r="4"/>
	</g>
	<g>
		<circle cx="82.7" cy="171.2" r="4"/>
	</g>
	<g>
		<circle cx="103.3" cy="171.2" r="6"/>
	</g>
	<g>
		<circle cx="82.7" cy="200.6" r="6"/>
	</g>
	<g>
		<circle cx="206" cy="150.3" r="7"/>
	</g>
	<g>
		<circle cx="128.4" cy="268" r="7"/>
	</g>
	<g>
		<circle cx="184.2" cy="220.2" r="7"/>
	</g>
	<g>
		<circle cx="104.3" cy="133.7" r="7"/>
	</g>
	<g>
		<rect x="100.5" y="88.6" transform="matrix(0.8418 -0.5399 0.5399 0.8418 -20.9988 107.6364)" width="145.2" height="2"/>
	</g>
	<g>
		<rect x="131.3" y="124.6" transform="matrix(0.4072 -0.9133 0.9133 0.4072 -55.0847 207.4241)" width="2" height="43.2"/>
	</g>
	<g>
		<rect x="163.6" y="152.8" transform="matrix(0.9908 -0.1357 0.1357 0.9908 -19.2023 25.8923)" width="33.5" height="2"/>
	</g>
	<g>
		
			<rect x="94" y="152.2" transform="matrix(2.635803e-02 -0.9997 0.9997 2.635803e-02 -51.7633 253.2393)" width="20.3" height="2"/>
	</g>
	<g>
		<rect x="88.4" y="170.2" width="8" height="2"/>
	</g>
	<g>
		<rect x="81.7" y="177.7" width="2" height="14.9"/>
	</g>
	<g>
		<rect x="104" y="201" transform="matrix(0.8277 -0.5612 0.5612 0.8277 -112.9494 99.1617)" width="2" height="65.1"/>
	</g>
	<g>
		<rect x="123" y="246.3" transform="matrix(0.3486 -0.9373 0.9373 0.3486 -143.1518 288.5988)" width="26.1" height="2"/>
	</g>
	<g>
		<rect x="154.7" y="221.4" transform="matrix(0.993 -0.1181 0.1181 0.993 -25.1224 21.084)" width="21.1" height="2"/>
	</g>
	<g>
		<rect x="207" y="213.2" transform="matrix(0.4134 -0.9106 0.9106 0.4134 -88.3293 324.9297)" width="2" height="35.6"/>
	</g>
</g>
</svg>
