<?xml version="1.0" encoding="utf-8"?>
<!-- Generator: Adobe Illustrator 22.1.0, SVG Export Plug-In . SVG Version: 6.00 Build 0)  -->
<svg version="1.1" id="Layer_3" xmlns="http://www.w3.org/2000/svg" xmlns:xlink="http://www.w3.org/1999/xlink" x="0px" y="0px"
	 viewBox="0 0 328.9 218.6" style="enable-background:new 0 0 328.9 218.6;" xml:space="preserve" fill="white">
<g>
	<path d="M251.2,69.1l37.4-26.7c-0.5-0.5-0.9-1-1.2-1.6l-37.4,26.7C250.5,68,250.9,68.5,251.2,69.1z"/>
</g>
<g>
	<path d="M273.6,116.3c0.2-0.7,0.5-1.3,0.9-1.8l-23.2-11c-0.2,0.7-0.5,1.3-0.9,1.8L273.6,116.3z"/>
</g>
<g>
	<path d="M246.3,78.1c-0.7,0.1-1.3,0-2-0.1l-0.8,15.7c0.7-0.1,1.3,0,2,0.1L246.3,78.1z"/>
</g>
<g>
	<path d="M283.3,146.4c0.6-0.2,1.3-0.3,2-0.3l-3.7-22.1c-0.6,0.2-1.3,0.3-2,0.3L283.3,146.4z"/>
</g>
<g>
	<path d="M236.7,102.5c-0.1-0.6-0.1-1.3-0.1-2l-115.6,3.6c0.1,0.6,0.1,1.3,0.1,2L236.7,102.5z"/>
</g>
<g>
	<path d="M107.8,108.8c-0.3-0.6-0.6-1.2-0.7-1.9l-78.4,31c0.3,0.6,0.6,1.2,0.7,1.9L107.8,108.8z"/>
</g>
<g>
	<path d="M29.6,141c0.1,0.7,0,1.3-0.1,2l76,3.4c-0.1-0.7,0-1.3,0.1-2L29.6,141z"/>
</g>
<g>
	<path d="M306.6,47.9c0.3-0.6,0.6-1.2,1-1.7l-9.9-5.8c-0.2,0.6-0.6,1.2-1,1.7L306.6,47.9z"/>
</g>
<g>
	<path d="M118.1,145.1c0.1,0.7,0,1.3-0.1,2l158.4,8.9c0-0.7,0-1.3,0.1-2L118.1,145.1z"/>
</g>
<g>
	<path d="M287.7,147.8c-4.3-1-8.6,1.6-9.6,5.8c-1,4.3,1.6,8.6,5.8,9.6c4.3,1,8.6-1.6,9.6-5.8C294.6,153.2,292,148.9,287.7,147.8z"/>
</g>
<g>
	<path d="M245.5,95.4c-3.2-0.8-6.5,1.2-7.3,4.4c-0.8,3.2,1.2,6.5,4.4,7.3c3.2,0.8,6.5-1.2,7.3-4.4C250.7,99.5,248.7,96.2,245.5,95.4
		z"/>
</g>
<g>
	<path d="M119.5,106.6c0.7-3-1.1-6.1-4.2-6.9c-3-0.7-6.1,1.1-6.9,4.1c-0.7,3,1.1,6.1,4.1,6.9C115.7,111.5,118.8,109.7,119.5,106.6z"
		/>
</g>
<g>
	<path d="M23.5,135.7c-3.3-0.8-6.6,1.2-7.5,4.5c-0.8,3.3,1.2,6.6,4.5,7.5c3.3,0.8,6.7-1.2,7.5-4.5C28.8,139.9,26.8,136.5,23.5,135.7
		z"/>
</g>
<g>
	<path d="M112.9,141.1c-2.6-0.6-5.2,1-5.8,3.5c-0.6,2.6,1,5.2,3.5,5.8c2.6,0.6,5.2-1,5.8-3.5C117.1,144.3,115.5,141.7,112.9,141.1z"
		/>
</g>
<g>
	<path d="M280.7,113.4c-2.5-0.6-5.1,0.9-5.8,3.5c-0.6,2.6,0.9,5.1,3.5,5.8c2.6,0.6,5.1-0.9,5.8-3.5
		C284.9,116.6,283.3,114,280.7,113.4z"/>
</g>
<g>
	<path d="M250.3,73.1c0.6-2.5-0.9-5.1-3.5-5.8c-2.5-0.6-5.1,0.9-5.8,3.5c-0.6,2.6,0.9,5.1,3.5,5.8C247,77.2,249.6,75.6,250.3,73.1z"
		/>
</g>
<g>
	<path d="M311.5,55.4c2.8,0.7,5.5-1,6.2-3.8c0.7-2.8-1-5.5-3.8-6.2c-2.8-0.7-5.5,1-6.2,3.8C307.1,51.9,308.8,54.7,311.5,55.4z"/>
</g>
<g>
	<path d="M296.4,39.4c0.5-2.2-0.8-4.4-3-4.9c-2.2-0.5-4.4,0.8-4.9,3c-0.5,2.2,0.8,4.4,3,4.9C293.7,42.9,295.9,41.6,296.4,39.4z"/>
</g>
</svg>
