<?xml version="1.0" encoding="utf-8"?>
<!-- Generator: Adobe Illustrator 22.1.0, SVG Export Plug-In . SVG Version: 6.00 Build 0)  -->
<svg version="1.1" id="Layer_4" xmlns="http://www.w3.org/2000/svg" xmlns:xlink="http://www.w3.org/1999/xlink" x="0px" y="0px"
	 viewBox="0 0 328.9 310.6" style="enable-background:new 0 0 328.9 310.6;" xml:space="preserve" fill="white">
<g>
	<path d="M269,148.3l-2.8,13.9c0.3,0,0.6,0,0.9,0.1c0.4,0.1,0.7,0.2,1.1,0.3l2.8-13.9c-0.3,0-0.6,0-0.9-0.1
		C269.7,148.6,269.4,148.5,269,148.3z"/>
	<path d="M57,68.5c-0.5,0.4-1.2,0.7-1.8,0.8l13.7,30.6c0.5-0.4,1.2-0.7,1.8-0.8L57,68.5z"/>
	<path d="M267.5,132.8c-0.2-0.6-0.2-1.3-0.2-2l-85.7,8.6c0.1,0.6,0.2,1.3,0.2,2L267.5,132.8z"/>
	<path d="M262,109.8c-0.3,0.6-0.6,1.2-1.1,1.7l4.3,2.7c0.3-0.6,0.6-1.2,1.1-1.7L262,109.8z"/>
	<path d="M272.3,120.8c-0.6,0.3-1.3,0.5-1.9,0.5l1,3.8c0.6-0.3,1.3-0.4,1.9-0.5L272.3,120.8z"/>
	<path d="M257.3,171.9c0.4,0.5,0.8,1.1,1,1.7l3.3-1.9c-0.4-0.5-0.8-1.1-1-1.7L257.3,171.9z"/>
	<path d="M166.8,135.7c0.4-0.5,0.9-1,1.5-1.4l-17.2-18.7c-0.4,0.5-0.9,1-1.5,1.3L166.8,135.7z"/>
	<path d="M140.4,114.2c-0.3-0.6-0.4-1.3-0.5-1.9l-41.4,9.9c0.2,0.6,0.4,1.3,0.5,1.9L140.4,114.2z"/>
	<path d="M88.2,24.1l12.9,1.6c0-0.4,0-0.9,0.1-1.3c0-0.2,0.1-0.5,0.2-0.7l-12.9-1.6c0,0.4,0,0.8,0,1.3
		C88.4,23.6,88.3,23.8,88.2,24.1z"/>
	<path d="M74.4,109.1l7.1,9c0.5-0.5,1-0.9,1.6-1.2l-7.1-9C75.5,108.4,75,108.8,74.4,109.1z"/>
	<path d="M122.3,203.6l1.8-0.8l-30.3-68.2c-0.6,0.3-1.2,0.6-1.8,0.8L122.3,203.6z"/>
	<path d="M152.7,185.8c0.7,0.2,1.3,0.5,1.8,0.8l16.3-37.2c-0.7-0.2-1.3-0.5-1.8-0.8L152.7,185.8z"/>
	<path d="M69.6,57.4c0.5,0.4,1,0.9,1.3,1.5l32.3-29.4c-0.5-0.4-1-0.9-1.3-1.5L69.6,57.4z"/>
	<path d="M58.9,62.1c0.2,0.6,0.4,1.3,0.4,2l2.1-0.4c-0.2-0.6-0.4-1.3-0.4-2L58.9,62.1z"/>
	<path d="M81.4,27.1c-0.6-0.3-1.2-0.7-1.6-1.2L56.1,59.2c0.6,0.3,1.2,0.7,1.6,1.2L81.4,27.1z"/>
	<g>
		<path d="M273,136.1c2.7,0.5,5.4-1.4,5.9-4.1c0.5-2.7-1.4-5.4-4.1-5.9c-2.7-0.5-5.4,1.4-5.9,4.1C268.4,133,270.2,135.6,273,136.1z"
			/>
	</g>
	<g>
		<path d="M166.4,140c-0.7,3.8,1.9,7.5,5.7,8.2c3.8,0.7,7.5-1.9,8.2-5.7c0.7-3.8-1.9-7.5-5.7-8.2C170.7,133.6,167,136.2,166.4,140z"
			/>
	</g>
	<g>
		<path d="M177.6,284.6c0,3.9,3.2,7.1,7.1,7c3.9,0,7-3.2,7-7.1c0-3.9-3.2-7.1-7.1-7C180.7,277.6,177.6,280.8,177.6,284.6z"/>
	</g>
	<g>
		<path d="M156.5,194c0.6-3.2-1.6-6.3-4.8-6.8c-3.2-0.6-6.3,1.6-6.8,4.8c-0.6,3.2,1.6,6.3,4.8,6.8
			C152.8,199.3,155.9,197.2,156.5,194z"/>
	</g>
	<g>
		<path d="M144.2,202c0.6-3.2-1.6-6.3-4.8-6.8c-3.2-0.6-6.3,1.6-6.8,4.8c-0.6,3.2,1.6,6.3,4.8,6.8
			C140.6,207.4,143.7,205.2,144.2,202z"/>
	</g>
	<g>
		<path d="M132,210.5c0.6-3.2-1.6-6.3-4.8-6.8c-3.2-0.6-6.3,1.6-6.8,4.8c-0.6,3.2,1.6,6.3,4.8,6.8
			C128.4,215.9,131.4,213.7,132,210.5z"/>
	</g>
	<path d="M98.3,282.2c0.7,0.1,1.3,0.4,1.9,0.7l24.5-66.6c-0.7-0.2-1.3-0.4-1.9-0.7L98.3,282.2z"/>
	<g>
		<path d="M145.4,116.5c2.6,0.5,5.1-1.3,5.5-3.9c0.5-2.6-1.3-5.1-3.9-5.5c-2.6-0.5-5.1,1.3-5.5,3.9
			C141.1,113.6,142.8,116,145.4,116.5z"/>
	</g>
	<g>
		<path d="M97.5,127.1c0.9-4.8-2.4-9.4-7.2-10.3c-4.8-0.9-9.4,2.4-10.3,7.2c-0.9,4.8,2.4,9.5,7.2,10.3C92,135.2,96.6,132,97.5,127.1
			z"/>
	</g>
	<g>
		<path d="M75.8,105c0.4-2.1-1-4.1-3.2-4.5c-2.1-0.4-4.1,1-4.5,3.2c-0.4,2.1,1,4.1,3.2,4.5C73.4,108.6,75.4,107.1,75.8,105z"/>
	</g>
	<g>
		<path d="M54.6,60.3c-2.1-0.4-4.1,1-4.5,3.2c-0.4,2.1,1,4.1,3.2,4.5c2.1,0.4,4.1-1,4.5-3.2C58.1,62.7,56.7,60.6,54.6,60.3z"/>
	</g>
	<g>
		<path d="M65.7,65.6c2.1,0.4,4.1-1,4.5-3.2c0.4-2.1-1-4.1-3.2-4.5c-2.1-0.4-4.1,1-4.5,3.2C62.2,63.2,63.6,65.2,65.7,65.6z"/>
	</g>
	<g>
		<path d="M107.1,21.4c-2.1-0.4-4.1,1-4.5,3.2c-0.4,2.1,1,4.1,3.2,4.5c2.1,0.4,4.1-1,4.5-3.2C110.7,23.8,109.2,21.8,107.1,21.4z"/>
	</g>
	<g>
		<path d="M86.9,23.1c0.3-1.9-0.9-3.8-2.9-4.1s-3.8,0.9-4.1,2.9c-0.3,1.9,0.9,3.8,2.9,4.1C84.8,26.3,86.6,25,86.9,23.1z"/>
	</g>
	<g>
		<path d="M275.7,143.4c0.4-2.5-1.2-4.9-3.7-5.3c-2.5-0.4-4.9,1.2-5.3,3.7c-0.4,2.5,1.2,4.9,3.7,5.4
			C272.9,147.6,275.3,145.9,275.7,143.4z"/>
	</g>
	<g>
		<path d="M270.4,168.8c0.4-2.3-1.2-4.6-3.5-5c-2.3-0.4-4.6,1.2-5,3.5c-0.4,2.3,1.2,4.6,3.5,5C267.7,172.7,269.9,171.1,270.4,168.8z
			"/>
	</g>
	<g>
		<path d="M249.8,174.7c-0.4,2,1,3.9,3,4.3c2,0.4,3.9-1,4.3-3c0.4-2-1-3.9-3-4.3C252,171.3,250.1,172.7,249.8,174.7z"/>
	</g>
	<g>
		<path d="M93.8,287c0,2,1.7,3.7,3.7,3.7c2,0,3.7-1.7,3.7-3.7c0-2-1.7-3.7-3.7-3.7C95.5,283.3,93.8,285,93.8,287z"/>
	</g>
	<path d="M181,276.9c0.6-0.3,1.2-0.6,1.9-0.7L153.9,199c-0.6,0.3-1.2,0.5-1.9,0.7L181,276.9z"/>
	<path d="M176.2,285.9c-0.1-0.7-0.1-1.3-0.1-2l-74,2c0.1,0.7,0.1,1.3,0.1,2L176.2,285.9z"/>
	<g>
		<path d="M266.4,115.4c-0.4,2,1,3.9,3,4.3c2,0.4,3.9-1,4.3-3c0.4-2-1-3.9-3-4.3C268.7,112.1,266.7,113.4,266.4,115.4z"/>
	</g>
	<g>
		<path d="M253.5,107.2c-0.4,2,1,3.9,3,4.3c2,0.4,3.9-1,4.3-3c0.4-2-1-3.9-3-4.3C255.8,103.8,253.8,105.2,253.5,107.2z"/>
	</g>
	<path d="M184.6,284.7"/>
	<path d="M97.5,287"/>
</g>
</svg>
