<?xml version="1.0" encoding="utf-8"?>
<!-- Generator: Adobe Illustrator 22.1.0, SVG Export Plug-In . SVG Version: 6.00 Build 0)  -->
<svg version="1.1" id="Layer_5" xmlns="http://www.w3.org/2000/svg" xmlns:xlink="http://www.w3.org/1999/xlink" x="0px" y="0px"
	 viewBox="0 0 328.9 310.6" style="enable-background:new 0 0 328.9 310.6;" xml:space="preserve" fill="white">
<g>
	<g>
		<circle cx="223.7" cy="49" r="9"/>
	</g>
	<g>
		<circle cx="34.4" cy="164.2" r="9"/>
	</g>
	<g>
		<circle cx="206.3" cy="104.4" r="4"/>
	</g>
	<g>
		<circle cx="153.3" cy="53" r="4"/>
	</g>
	<g>
		<circle cx="132.7" cy="64.4" r="5"/>
	</g>
	<g>
		<circle cx="91.8" cy="242.8" r="5"/>
	</g>
	<g>
		<circle cx="78.1" cy="47.3" r="5"/>
	</g>
	<g>
		<circle cx="221.8" cy="139.1" r="4"/>
	</g>
	<g>
		<circle cx="47.4" cy="139.1" r="4"/>
	</g>
	<g>
		<circle cx="256.7" cy="139.1" r="4"/>
	</g>
	<g>
		<circle cx="217.8" cy="168.2" r="4"/>
	</g>
	<g>
		<circle cx="153.3" cy="104.4" r="6"/>
	</g>
	<g>
		<circle cx="115.3" cy="70.4" r="6"/>
	</g>
	<g>
		<circle cx="151.8" cy="141.1" r="5"/>
	</g>
	<g>
		<circle cx="132.7" cy="118.4" r="6"/>
	</g>
	<g>
		<circle cx="84.1" cy="109.4" r="6"/>
	</g>
	<g>
		<circle cx="175" cy="120.1" r="6"/>
	</g>
	<g>
		<circle cx="73.1" cy="213.2" r="6"/>
	</g>
	<g>
		<circle cx="126.7" cy="220.9" r="6"/>
	</g>
	<g>
		<circle cx="296.5" cy="102.4" r="7"/>
	</g>
	<g>
		<circle cx="237" cy="189.2" r="7"/>
	</g>
	<g>
		<circle cx="149.8" cy="263.6" r="7"/>
	</g>
	<g>
		<rect x="255.3" y="120.7" transform="matrix(0.7363 -0.6767 0.6767 0.7363 -9.6531 218.5976)" width="40.6" height="2"/>
	</g>
	<g>
		<rect x="226.9" y="138.1" width="24" height="2"/>
	</g>
	<g>
		<rect x="213" y="108.1" transform="matrix(0.9136 -0.4067 0.4067 0.9136 -30.9671 97.5284)" width="2" height="27.1"/>
	</g>
	<g>
		<rect x="180.4" y="110.8" transform="matrix(0.8936 -0.4488 0.4488 0.8936 -29.801 97.8866)" width="22.5" height="2"/>
	</g>
	<g>
		<rect x="163.1" y="105.9" transform="matrix(0.5851 -0.811 0.811 0.5851 -22.9344 179.6537)" width="2" height="12.6"/>
	</g>
	<g>
		<rect x="192.9" y="78.1" transform="matrix(0.2993 -0.9541 0.9541 0.2993 74.6011 259.8843)" width="42.7" height="2"/>
	</g>
	<g>
		<rect x="210.2" y="152.6" transform="matrix(0.1367 -0.9906 0.9906 0.1367 37.5316 350.3272)" width="19.1" height="2"/>
	</g>
	<g>
		<rect x="225.4" y="170.1" transform="matrix(0.7369 -0.676 0.676 0.7369 -60.4632 199.7114)" width="2" height="14.8"/>
	</g>
	<g>
		<rect x="95.2" y="43.1" transform="matrix(0.5284 -0.849 0.849 0.5284 -4.3348 109.2802)" width="2" height="30.9"/>
	</g>
	<g>
		<rect x="122" y="66.3" transform="matrix(0.9455 -0.3257 0.3257 0.9455 -15.111 44.255)" width="5.2" height="2"/>
	</g>
	<g>
		<rect x="137.5" y="57.5" transform="matrix(0.8738 -0.4862 0.4862 0.8738 -10.3489 77.1221)" width="11.9" height="2"/>
	</g>
	<g>
		<rect x="141.6" y="68" transform="matrix(0.8896 -0.4567 0.4567 0.8896 -22.4892 74.3811)" width="2" height="31.5"/>
	</g>
	<g>
		<rect x="154.2" y="130" transform="matrix(0.7421 -0.6703 0.6703 0.7421 -45.7957 143.0533)" width="17.6" height="2"/>
	</g>
	<g>
		<rect x="141.5" y="121.9" transform="matrix(0.7652 -0.6438 0.6438 0.7652 -50.2203 122.2191)" width="2" height="16.1"/>
	</g>
	<g>
		<rect x="107.5" y="96.4" transform="matrix(0.1822 -0.9833 0.9833 0.1822 -23.286 199.882)" width="2" height="35.1"/>
	</g>
	<g>
		<rect x="47.5" y="123.9" transform="matrix(0.7772 -0.6293 0.6293 0.7772 -64.1361 68.6876)" width="34.9" height="2"/>
	</g>
	<g>
		<rect x="35.6" y="148.4" transform="matrix(0.4608 -0.8875 0.8875 0.4608 -109.9629 117.8621)" width="12.9" height="2"/>
	</g>
	<g>
		<rect x="53.5" y="167.7" transform="matrix(0.7875 -0.6163 0.6163 0.7875 -105.4663 73.9638)" width="2" height="44.4"/>
	</g>
	<g>
		<rect x="81.6" y="217.5" transform="matrix(0.8454 -0.5342 0.5342 0.8454 -109.1635 79.4399)" width="2" height="21.6"/>
	</g>
	<g>
		<rect x="95.6" y="231" transform="matrix(0.8466 -0.5322 0.5322 0.8466 -106.7704 93.6057)" width="26.8" height="2"/>
	</g>
	<g>
		<rect x="118.9" y="229.4" transform="matrix(0.3374 -0.9414 0.9414 0.3374 -158.6289 280.4203)" width="2" height="46.9"/>
	</g>
</g>
</svg>
