<?xml version="1.0" encoding="utf-8"?>
<!-- Generator: Adobe Illustrator 22.1.0, SVG Export Plug-In . SVG Version: 6.00 Build 0)  -->
<svg version="1.1" id="Layer_1" xmlns="http://www.w3.org/2000/svg" xmlns:xlink="http://www.w3.org/1999/xlink" x="0px" y="0px"
	 viewBox="0 0 274.8 218.6" style="enable-background:new 0 0 274.8 218.6;" xml:space="preserve" fill="white">
<g>
	<path d="M234.3,84.6c-0.3-0.6-0.5-1.2-0.6-1.9l-66,20.3c0.3,0.6,0.5,1.2,0.6,1.9L234.3,84.6z"/>
	<path d="M177.3,131.7l-11.4-20.9c-0.5,0.4-1.1,0.7-1.8,1l11.4,20.9C176.1,132.3,176.7,132,177.3,131.7z"/>
	<path d="M186.6,135.9c0.2,0.6,0.4,1.3,0.4,1.9l50.3-11.5c-0.2-0.6-0.4-1.3-0.4-1.9L186.6,135.9z"/>
	<path d="M242.8,116.7c0.6-0.1,1.3-0.2,2-0.1l-1.5-27.2c-0.7,0.1-1.3,0.2-2,0.1L242.8,116.7z"/>
	<path d="M38.8,98c0.3,0.6,0.5,1.2,0.6,1.9l36.7-11c-0.3-0.6-0.5-1.2-0.6-1.9L38.8,98z"/>
	<path d="M110.4,93.5l-19.9-6.4c0,0.2-0.1,0.3-0.1,0.5c-0.1,0.5-0.3,1-0.5,1.4l19.9,6.4c0-0.1,0-0.3,0.1-0.4
		C110,94.5,110.2,94,110.4,93.5z"/>
	<path d="M156.1,103.6l-30-6c0,0.4-0.1,0.9-0.2,1.3c-0.1,0.2-0.1,0.4-0.2,0.6l30,6c0-0.4,0.1-0.8,0.2-1.3
		C156,104.1,156,103.8,156.1,103.6z"/>
	<g>
		<path d="M243.5,74.7c-3.6-0.9-7.3,1.3-8.2,5c-0.9,3.6,1.3,7.3,5,8.2c3.6,0.9,7.3-1.3,8.2-5C249.3,79.2,247.1,75.5,243.5,74.7z"/>
	</g>
	<g>
		<path d="M245.5,118.2c-3.1-0.8-6.2,1.1-6.9,4.2c-0.8,3.1,1.1,6.2,4.2,6.9c3.1,0.8,6.2-1.1,6.9-4.2
			C250.4,122.1,248.6,119,245.5,118.2z"/>
	</g>
	<g>
		<path d="M181.3,132.9c-3.1-0.8-6.2,1.1-6.9,4.2c-0.8,3.1,1.1,6.2,4.2,6.9c3.1,0.8,6.2-1.1,6.9-4.2
			C186.2,136.8,184.3,133.7,181.3,132.9z"/>
	</g>
	<g>
		<path d="M84.5,79.9c-3.3-0.8-6.6,1.2-7.4,4.5c-0.8,3.3,1.2,6.6,4.5,7.4c3.3,0.8,6.6-1.2,7.4-4.5C89.8,84,87.8,80.7,84.5,79.9z"/>
	</g>
	<g>
		<path d="M124.4,98.6c0.9-3.6-1.3-7.3-4.9-8.2c-3.6-0.9-7.3,1.3-8.2,4.9c-0.9,3.6,1.3,7.3,4.9,8.2
			C119.9,104.4,123.5,102.2,124.4,98.6z"/>
	</g>
	<g>
		<path d="M163.2,101.1c-2.6-0.6-5.2,1-5.8,3.5c-0.6,2.6,1,5.2,3.5,5.8c2.6,0.6,5.2-0.9,5.8-3.5
			C167.4,104.4,165.8,101.8,163.2,101.1z"/>
	</g>
	<g>
		<path d="M33,94.9c-3.5-0.9-7,1.3-7.9,4.8c-0.9,3.5,1.3,7,4.8,7.9c3.5,0.9,7-1.3,7.9-4.8C38.6,99.3,36.5,95.8,33,94.9z"/>
	</g>
</g>
</svg>
