<?xml version="1.0" encoding="utf-8"?>
<!-- Generator: Adobe Illustrator 22.1.0, SVG Export Plug-In . SVG Version: 6.00 Build 0)  -->
<svg version="1.1" id="Layer_2" xmlns="http://www.w3.org/2000/svg" xmlns:xlink="http://www.w3.org/1999/xlink" x="0px" y="0px"
	 viewBox="0 0 274.8 218.6" style="enable-background:new 0 0 274.8 218.6;" xml:space="preserve" fill="white">
<g>
	<path d="M103.4,107.7c0.2-0.7,0.5-1.3,0.9-1.8l-10.5-5.6c-0.2,0.7-0.5,1.3-0.9,1.8L103.4,107.7z"/>
	<path d="M177,72.4c0.1,0.6,0.1,1.3,0,2l18.2-0.1c-0.1-0.7-0.1-1.3,0-2L177,72.4z"/>
	<path d="M111.5,104.9c0.6,0.4,1,0.9,1.4,1.4l20.5-20.5c-0.6-0.4-1-0.9-1.4-1.4L111.5,104.9z"/>
	<path d="M87.8,103.9c-0.7-0.2-1.3-0.5-1.8-0.9l-13.7,29.1c0.7,0.2,1.3,0.5,1.8,0.9L87.8,103.9z"/>
	<path d="M87.4,142.4l-10.2-2.7c0,0.3-0.1,0.6-0.1,0.8c-0.1,0.4-0.2,0.7-0.4,1.1l10.2,2.7c0-0.3,0.1-0.5,0.2-0.8
		C87.1,143.1,87.2,142.7,87.4,142.4z"/>
	<path d="M141,79.5c0.3,0.6,0.4,1.3,0.4,1.9l25.8-5.9c-0.3-0.6-0.4-1.3-0.4-1.9L141,79.5z"/>
	<path d="M105.7,113.8l-8.9,23.7l0,0c0.7,0.2,1.3,0.4,1.8,0.7l9-23.7c-0.1,0-0.2,0-0.4-0.1C106.7,114.4,106.2,114.1,105.7,113.8z"/>
	<circle cx="203.3" cy="73.2" r="6.6"/>
	<circle cx="94.9" cy="145.4" r="6.6"/>
	<ellipse transform="matrix(0.2388 -0.9711 0.9711 0.2388 -81.2664 173.9219)" cx="70.3" cy="138.8" rx="5.4" ry="5.4"/>
	<path d="M109.4,105.6c-2.1-0.5-4.1,0.8-4.6,2.8c-0.5,2.1,0.8,4.1,2.8,4.6c2.1,0.5,4.1-0.8,4.6-2.8
		C112.7,108.2,111.5,106.1,109.4,105.6z"/>
	<path d="M88.2,102.4c1.9,0.5,3.9-0.7,4.3-2.6c0.5-1.9-0.7-3.9-2.6-4.3C88,95,86,96.2,85.6,98.1C85.1,100,86.3,101.9,88.2,102.4z"/>
	<path d="M135.4,85.2c2,0.5,4-0.7,4.4-2.7c0.5-2-0.7-4-2.7-4.4c-2-0.5-4,0.7-4.4,2.7C132.3,82.7,133.5,84.7,135.4,85.2z"/>
	<path d="M175.5,74.3c0.5-2-0.7-4-2.7-4.4c-2-0.5-4,0.7-4.4,2.7c-0.5,2,0.7,4,2.7,4.4C173.1,77.5,175.1,76.3,175.5,74.3z"/>
</g>
</svg>
